<?xml version="1.0" encoding="UTF-8" standalone="no"?>
<!-- Created with Inkscape (http://www.inkscape.org/) -->

<svg
   xmlns:dc="http://purl.org/dc/elements/1.1/"
   xmlns:cc="http://creativecommons.org/ns#"
   xmlns:rdf="http://www.w3.org/1999/02/22-rdf-syntax-ns#"
   xmlns:svg="http://www.w3.org/2000/svg"
   xmlns="http://www.w3.org/2000/svg"
   xmlns:sodipodi="http://sodipodi.sourceforge.net/DTD/sodipodi-0.dtd"
   xmlns:inkscape="http://www.inkscape.org/namespaces/inkscape"
   width="108"
   height="108"
   id="svg4152"
   version="1.1"
   inkscape:version="0.92.2 2405546, 2018-03-11"
   viewBox="0 0 108 108"
   sodipodi:docname="ic_launcher_background.svg">
  <defs
     id="defs4154" />
  <sodipodi:namedview
     id="base"
     pagecolor="#ffffff"
     bordercolor="#666666"
     borderopacity="1.0"
     inkscape:pageopacity="0.0"
     inkscape:pageshadow="2"
     inkscape:zoom="2.40625"
     inkscape:cx="29.478213"
     inkscape:cy="48.094474"
     inkscape:current-layer="layer1"
     showgrid="true"
     inkscape:grid-bbox="true"
     inkscape:document-units="px"
     showguides="false"
     inkscape:window-width="1918"
     inkscape:window-height="692"
     inkscape:window-x="1920"
     inkscape:window-y="20"
     inkscape:window-maximized="0" />
  <metadata
     id="metadata4157">
    <rdf:RDF>
      <cc:Work
         rdf:about="">
        <dc:format>image/svg+xml</dc:format>
        <dc:type
           rdf:resource="http://purl.org/dc/dcmitype/StillImage" />
        <dc:title />
      </cc:Work>
    </rdf:RDF>
  </metadata>
  <g
     id="layer1"
     inkscape:label="Layer 1"
     inkscape:groupmode="layer"
     transform="translate(0,60)">
    <path
       style="fill:#000000;fill-opacity:1;stroke-width:0.5625"
       d="M 54 54 C 36.000007 71.999993 17.999994 89.999961 0 108 L 54 108 L 108 108 C 90.000004 90.000006 72.000024 71.999993 54 54 z "
       transform="translate(0,-60)"
       id="rect4157-5-4" />
    <path
       style="fill:#ff0000;fill-opacity:1;stroke-width:0.5625"
       d="M 0 0 L 0 54 L 0 108 C 17.999994 89.999991 36.000007 72.000023 54 54 C 36.000007 36.000021 18.000023 17.999979 0 0 z "
       transform="translate(0,-60)"
       id="rect4157-0-3-4" />
    <path
       style="fill:#ff00ff;fill-opacity:1;stroke-width:0.5625"
       d="M 108 0 C 90.000024 17.999994 71.999979 35.999976 54 54 C 71.999994 71.999993 89.999974 90.000006 108 108 L 108 54 L 108 0 z "
       transform="translate(0,-60)"
       id="rect4157-0-7-7-5" />
    <path
       style="fill:#0000ff;fill-opacity:1;stroke-width:0.5625"
       d="M 0 0 C 17.999994 17.999979 35.999977 36.000021 54 54 C 71.999979 36.000006 90.000024 18.000023 108 0 L 54 0 L 0 0 z "
       transform="translate(0,-60)"
       id="rect4157-0-8" />
  </g>
</svg>
